<svg xmlns="http://www.w3.org/2000/svg" xmlns:xlink="http://www.w3.org/1999/xlink" viewBox="0 0 794.12 455.9"><defs><style>.cls-1{isolation:isolate;}.cls-2{fill:#3f3f3f;}.cls-3{fill:url(#linear-gradient);}.cls-4{mix-blend-mode:multiply;fill:url(#linear-gradient-2);}.cls-5{fill:url(#radial-gradient);}.cls-6{fill:url(#radial-gradient-2);}.cls-7{fill:#eaeaea;}.cls-8{fill:#414141;}.cls-9{fill:#424242;}.cls-10{fill:#434343;}.cls-11{fill:#444;}.cls-12{fill:#454545;}.cls-13{fill:#464646;}.cls-14{fill:#474747;}.cls-15{fill:#484848;}.cls-16{fill:#494949;}.cls-17{fill:#4a4a4a;}.cls-18{fill:#4b4b4b;}.cls-19{fill:#4c4c4c;}.cls-20{fill:#4d4d4d;}.cls-21{fill:#4e4e4e;}.cls-22{fill:#4f4f4f;}.cls-23{fill:#505050;}.cls-24{fill:#515151;}.cls-25{fill:#525252;}.cls-26{fill:#535353;}.cls-27{fill:#545454;}.cls-28{fill:#555;}.cls-29{fill:#565656;}.cls-30{fill:#575757;}.cls-31{fill:#585858;}.cls-32{fill:#595959;}.cls-33{fill:#5a5a5a;}.cls-34{fill:#5b5b5b;}.cls-35{fill:#5c5c5c;}.cls-36{fill:#5d5d5d;}.cls-37{fill:#5e5e5e;}.cls-38{fill:#5f5f5f;}.cls-39{fill:#606060;}.cls-40{fill:#616161;}.cls-41{fill:#626262;}.cls-42{fill:#636363;}.cls-43{fill:#646464;}.cls-44{fill:#656565;}.cls-45{fill:#666;}.cls-46{fill:#676767;}.cls-47{fill:#686868;}.cls-48{fill:#696969;}.cls-49{fill:#6a6a6a;}.cls-50{fill:#6b6b6b;}.cls-51{fill:#6c6c6c;}.cls-52{fill:#6d6d6d;}.cls-53{fill:#6e6e6e;}.cls-54{fill:#6f6f6f;}.cls-55{fill:#707070;}.cls-56{fill:#717171;}.cls-57{fill:#727272;}.cls-58{fill:#737373;}.cls-59{fill:#747474;}.cls-60{fill:#757575;}.cls-61{fill:#767676;}.cls-62{fill:#777;}.cls-63{fill:#787878;}.cls-64{fill:#797979;}.cls-65{fill:#7a7a7a;}.cls-66{fill:#7b7b7b;}.cls-67{fill:#7c7c7c;}.cls-68{fill:#7d7d7d;}.cls-69{fill:#7e7e7e;}.cls-70{fill:#7f7f7f;}.cls-71{fill:gray;}.cls-72{fill:#818181;}.cls-73{fill:#828282;}.cls-74{fill:#838383;}.cls-75{fill:#848484;}.cls-76{fill:#858585;}.cls-77{fill:#868686;}.cls-78{fill:#878787;}.cls-79{fill:#888;}.cls-80{fill:#898989;}.cls-81{fill:#8a8a8a;}.cls-82{fill:#8b8b8b;}.cls-83{fill:#8c8c8c;}.cls-84{fill:url(#linear-gradient-3);}.cls-85{fill:url(#linear-gradient-4);}.cls-86{fill:url(#linear-gradient-5);}.cls-87{fill:#8d8d8d;}.cls-88{fill:#8e8e8e;}.cls-89{fill:#8f8f8f;}.cls-90{fill:#909090;}.cls-91{fill:#919191;}.cls-92{fill:#929292;}.cls-93{fill:#939393;}.cls-94{fill:#949494;}.cls-95{fill:#959595;}.cls-96{fill:#969696;}.cls-97{fill:#979797;}.cls-98{fill:#989898;}.cls-99{fill:#999;}.cls-100{fill:#9a9a9a;}.cls-101{fill:#9b9b9b;}.cls-102{fill:#9c9c9c;}.cls-103{fill:#9d9d9d;}.cls-104{fill:#9e9e9e;}.cls-105{fill:#9f9f9f;}.cls-106{fill:#a0a0a0;}.cls-107{fill:#a1a1a1;}.cls-108{fill:#a2a2a2;}.cls-109{fill:#a3a3a3;}.cls-110{fill:#a4a4a4;}.cls-111{fill:#a5a5a5;}.cls-112{fill:#a6a6a6;}.cls-113{fill:#a7a7a7;}.cls-114{fill:#a8a8a8;}.cls-115{fill:#a9a9a9;}.cls-116{fill:#aaa;}.cls-117{fill:#ababab;}.cls-118{fill:#acacac;}.cls-119{fill:#adadad;}.cls-120{fill:#aeaeae;}.cls-121{fill:#afafaf;}.cls-122{fill:#b0b0b0;}.cls-123{fill:#b1b1b1;}.cls-124{fill:#b2b2b2;}.cls-125{fill:#b3b3b3;}.cls-126{fill:#b4b4b4;}.cls-127{fill:#b5b5b5;}.cls-128{fill:#b6b6b6;}.cls-129{fill:#b7b7b7;}.cls-130{fill:#b8b8b8;}.cls-131{fill:#b9b9b9;}.cls-132{fill:#bababa;}.cls-133{fill:#bbb;}.cls-134{fill:#bcbcbc;}.cls-135{fill:#bdbdbd;}.cls-136{fill:#bebebe;}.cls-137{fill:#bfbfbf;}.cls-138{fill:silver;}.cls-139{fill:#c1c1c1;}.cls-140{fill:#c2c2c2;}.cls-141{fill:#c3c3c3;}.cls-142{fill:#c4c4c4;}.cls-143{fill:#c5c5c5;}.cls-144{fill:#c6c6c6;}.cls-145{fill:#c7c7c7;}.cls-146{fill:#c8c8c8;}.cls-147{fill:#c9c9c9;}.cls-148{fill:#cacaca;}.cls-149{fill:#cbcbcb;}.cls-150{fill:#ccc;}.cls-151{fill:#cdcdcd;}.cls-152{fill:url(#linear-gradient-6);}.cls-153{fill:#090909;}.cls-154{fill:url(#linear-gradient-7);}.cls-155{fill:url(#linear-gradient-8);}.cls-156{fill:url(#linear-gradient-9);}.cls-157{fill:url(#linear-gradient-10);}.cls-158{fill:url(#linear-gradient-11);}.cls-159{fill:url(#linear-gradient-12);}.cls-160{fill:url(#linear-gradient-13);}.cls-161{fill:url(#linear-gradient-14);}</style><linearGradient id="linear-gradient" x1="-2240.33" y1="-11.05" x2="-2251.85" y2="-32.58" gradientTransform="matrix(-1, 0, 0, 1, -1522.64, 0)" gradientUnits="userSpaceOnUse"><stop offset="0" stop-color="#787878"/><stop offset="0.53" stop-color="#515151"/><stop offset="0.56" stop-color="#5c5c5c"/><stop offset="1" stop-color="#787878"/></linearGradient><linearGradient id="linear-gradient-2" x1="-2070.27" y1="317.03" x2="-2061.48" y2="337.19" gradientTransform="matrix(-1, 0, 0, 1, -1522.64, 0)" gradientUnits="userSpaceOnUse"><stop offset="0" stop-color="#fff"/><stop offset="0.53" stop-color="#515151"/><stop offset="0.56" stop-color="#5c5c5c"/><stop offset="1" stop-color="#fff"/></linearGradient><radialGradient id="radial-gradient" cx="-1810.04" cy="-7.28" r="679.93" gradientTransform="matrix(-1, 0, 0, 1, -1522.64, 0)" gradientUnits="userSpaceOnUse"><stop offset="0" stop-color="#fff"/><stop offset="1"/></radialGradient><radialGradient id="radial-gradient-2" cx="-993.75" cy="-400.53" r="37.7" gradientTransform="matrix(-15.6, 0, 0, 15.6, -14624.53, 6328.81)" gradientUnits="userSpaceOnUse"><stop offset="0" stop-color="#f0f0f0"/><stop offset="1" stop-color="#fff"/></radialGradient><linearGradient id="linear-gradient-3" x1="5744.04" y1="440.24" x2="5923.37" y2="440.24" gradientTransform="translate(-5114.14)" gradientUnits="userSpaceOnUse"><stop offset="0" stop-color="#dadadc"/><stop offset="0.39" stop-color="#cdcdcf"/><stop offset="0.77" stop-color="#a0a0a1"/><stop offset="0.8" stop-color="#a4a4a5"/><stop offset="0.82" stop-color="#afafb0"/><stop offset="0.85" stop-color="#c3c3c4"/><stop offset="0.87" stop-color="#dedede"/><stop offset="0.88" stop-color="#f3f3f3"/><stop offset="0.9" stop-color="#e5e5e5"/><stop offset="0.92" stop-color="#cacaca"/><stop offset="0.95" stop-color="#b6b6b7"/><stop offset="0.97" stop-color="#ababac"/><stop offset="1" stop-color="#a7a7a8"/></linearGradient><linearGradient id="linear-gradient-4" x1="5192.35" y1="440.24" x2="5091.6" y2="440.24" xlink:href="#linear-gradient-3"/><linearGradient id="linear-gradient-5" x1="5425.12" y1="440.24" x2="5721.5" y2="440.24" gradientTransform="translate(-5114.14)" gradientUnits="userSpaceOnUse"><stop offset="0" stop-color="#dadadc"/><stop offset="0.47" stop-color="#cdcdcf"/><stop offset="0.49" stop-color="#a0a0a1"/><stop offset="0.5" stop-color="#a4a4a5"/><stop offset="0.5" stop-color="#afafb0"/><stop offset="0.51" stop-color="#c3c3c3"/><stop offset="0.52" stop-color="#d2d2d2"/><stop offset="0.56" stop-color="#f3f3f3"/><stop offset="0.58" stop-color="#d8d8d8"/><stop offset="0.59" stop-color="#c4c4c5"/><stop offset="0.61" stop-color="#b9b9ba"/><stop offset="0.62" stop-color="#b5b5b6"/><stop offset="0.63" stop-color="#a7a7a8"/><stop offset="1" stop-color="#dadadc"/></linearGradient><linearGradient id="linear-gradient-6" x1="-1677.96" y1="649.13" x2="-1632.42" y2="469.21" gradientTransform="matrix(-1, 0, 0, 1, -1237.8, 0)" gradientUnits="userSpaceOnUse"><stop offset="0" stop-color="#fff"/><stop offset="1" stop-color="#565656"/></linearGradient><linearGradient id="linear-gradient-7" x1="5635.61" y1="450.56" x2="5890.14" y2="434.65" gradientTransform="translate(-5114.14)" gradientUnits="userSpaceOnUse"><stop offset="0" stop-color="#aaa"/><stop offset="0.62" stop-color="#5d5d5d"/><stop offset="1" stop-color="#202020"/></linearGradient><linearGradient id="linear-gradient-8" x1="5635.37" y1="447.43" x2="5890.02" y2="431.51" xlink:href="#linear-gradient-7"/><linearGradient id="linear-gradient-9" x1="5635.63" y1="453" x2="5890.3" y2="437.08" xlink:href="#linear-gradient-7"/><linearGradient id="linear-gradient-10" x1="5636.42" y1="454.51" x2="5890.29" y2="438.64" xlink:href="#linear-gradient-7"/><linearGradient id="linear-gradient-11" x1="-1814.69" y1="422.38" x2="-1858.51" y2="430.32" gradientTransform="matrix(-1, 0, 0, 1, -1237.8, 0)" gradientUnits="userSpaceOnUse"><stop offset="0" stop-color="#545454"/><stop offset="1"/></linearGradient><linearGradient id="linear-gradient-12" x1="-1813.06" y1="431.21" x2="-1856.9" y2="439.17" xlink:href="#linear-gradient-11"/><linearGradient id="linear-gradient-13" x1="-1815.84" y1="415.5" x2="-1859.66" y2="423.45" xlink:href="#linear-gradient-11"/><linearGradient id="linear-gradient-14" x1="-1817.12" y1="411.2" x2="-1860.81" y2="419.12" xlink:href="#linear-gradient-11"/></defs><title>hero_computer</title><g class="cls-1"><g id="Layer_1" data-name="Layer 1"><path class="cls-2" d="M369,79.7S759.57.93,767,.15c14-1.48,27.12,8,27.12,18.21V423.3c0,12.78-12,23.11-24.81,23.11H352.92V98.52A19.07,19.07,0,0,1,369,79.7Z"/><path class="cls-3" d="M367.49,79.7S758.08.93,765.5.15c14-1.48,27.12,8,27.12,18.21V423.3c0,12.78-12,23.11-24.81,23.11H351.42V98.52A19.08,19.08,0,0,1,367.49,79.7Z"/><path class="cls-4" d="M367.49,79.7S758.08.93,765.5.15c14-1.48,27.12,8,27.12,18.21V423.3c0,12.78-12,23.11-24.81,23.11H351.42V98.52A19.08,19.08,0,0,1,367.49,79.7Z"/><path d="M344.14,446.41V98.52A19.08,19.08,0,0,1,360.23,79.7L762.62.36a18.21,18.21,0,0,1,21.07,18V423.3a23.11,23.11,0,0,1-23.14,23.11Z"/><path class="cls-5" d="M602.43,32,762.62.36a18.21,18.21,0,0,1,21.07,18V423.3a23.11,23.11,0,0,1-23.14,23.11H484.25Z"/><polygon class="cls-6" points="756.24 418.96 371.62 418.96 371.62 105.69 756.24 29.2 756.24 418.96 756.24 418.96"/><polygon class="cls-7" points="374.24 416.31 753.6 416.31 753.6 32.42 374.24 107.85 374.24 416.31 374.24 416.31"/><path d="M344.14,98.52V446.41H760.55c12.79,0,24.8-10.33,24.8-23.11V18.36c0-10.23-10-18.21-19.85-18.21a20.35,20.35,0,0,0-2.88.21L360.23,79.7A19.08,19.08,0,0,0,344.14,98.52Zm3.62,0a15.43,15.43,0,0,1,13-15.26L763.19,3.94a16.45,16.45,0,0,1,2.31-.18,14.6,14.6,0,0,1,14.57,14.6V423.3a19.54,19.54,0,0,1-19.52,19.5H347.76Z"/><path class="cls-8" d="M37.89,455.88C21.41,455.65,0,451.56,0,446.24H772.11c0,5.32-36.67,9.64-60,9.64Z"/><path class="cls-9" d="M37.89,455.79C21.41,455.57,0,451.48,0,446.15H772.11c0,5.33-36.67,9.64-60,9.64Z"/><path class="cls-10" d="M37.89,455.71C21.41,455.49,0,451.39,0,446.07H772.11c0,5.32-36.67,9.64-60,9.64Z"/><path class="cls-11" d="M37.89,455.62C21.41,455.4,0,451.31,0,446H772.11c0,5.33-36.67,9.64-60,9.64Z"/><path class="cls-12" d="M37.89,455.54C21.41,455.32,0,451.22,0,445.9H772.11c0,5.32-36.67,9.64-60,9.64Z"/><path class="cls-13" d="M37.89,455.45C21.41,455.23,0,451.14,0,445.81H772.11c0,5.33-36.67,9.64-60,9.64Z"/><path class="cls-14" d="M37.89,455.37C21.41,455.15,0,451.05,0,445.73H772.11c0,5.32-36.67,9.64-60,9.64Z"/><path class="cls-15" d="M37.89,455.28C21.41,455.06,0,451,0,445.64H772.11c0,5.33-36.67,9.64-60,9.64Z"/><path class="cls-16" d="M37.89,455.2C21.41,455,0,450.88,0,445.56H772.11c0,5.32-36.67,9.64-60,9.64Z"/><path class="cls-17" d="M37.89,455.12C21.41,454.89,0,450.8,0,445.47H772.11c0,5.33-36.67,9.65-60,9.65Z"/><path class="cls-18" d="M37.89,455C21.41,454.81,0,450.71,0,445.39H772.11c0,5.32-36.67,9.64-60,9.64Z"/><path class="cls-19" d="M37.89,455C21.41,454.73,0,450.63,0,445.3H772.11c0,5.33-36.67,9.65-60,9.65Z"/><path class="cls-20" d="M37.89,454.86C21.41,454.64,0,450.54,0,445.22H772.11c0,5.32-36.67,9.64-60,9.64Z"/><path class="cls-21" d="M37.89,454.78C21.41,454.56,0,450.46,0,445.13H772.11c0,5.33-36.67,9.65-60,9.65Z"/><path class="cls-22" d="M37.89,454.69C21.41,454.47,0,450.37,0,445.05H772.11c0,5.33-36.67,9.64-60,9.64Z"/><path class="cls-23" d="M37.89,454.61C21.41,454.39,0,450.29,0,445H772.11c0,5.33-36.67,9.65-60,9.65Z"/><path class="cls-24" d="M37.89,454.52C21.41,454.3,0,450.2,0,444.88H772.11c0,5.33-36.67,9.64-60,9.64Z"/><path class="cls-25" d="M37.89,454.44C21.41,454.22,0,450.12,0,444.79H772.11c0,5.33-36.67,9.65-60,9.65Z"/><path class="cls-26" d="M37.89,454.35C21.41,454.13,0,450,0,444.71H772.11c0,5.33-36.67,9.64-60,9.64Z"/><path class="cls-27" d="M37.89,454.27C21.41,454.05,0,450,0,444.62H772.11c0,5.33-36.67,9.65-60,9.65Z"/><path class="cls-28" d="M37.89,454.18C21.41,454,0,449.86,0,444.54H772.11c0,5.33-36.67,9.64-60,9.64Z"/><path class="cls-29" d="M37.89,454.1C21.41,453.88,0,449.78,0,444.45H772.11c0,5.33-36.67,9.65-60,9.65Z"/><path class="cls-30" d="M37.89,454C21.41,453.8,0,449.69,0,444.37H772.11c0,5.33-36.67,9.64-60,9.64Z"/><path class="cls-31" d="M37.89,453.93C21.41,453.71,0,449.61,0,444.29H772.11c0,5.32-36.67,9.64-60,9.64Z"/><path class="cls-32" d="M37.89,453.85C21.41,453.63,0,449.52,0,444.2H772.11c0,5.33-36.67,9.65-60,9.65Z"/><path class="cls-33" d="M37.89,453.76C21.41,453.54,0,449.44,0,444.12H772.11c0,5.32-36.67,9.64-60,9.64Z"/><path class="cls-34" d="M37.89,453.68C21.41,453.46,0,449.35,0,444H772.11c0,5.33-36.67,9.65-60,9.65Z"/><path class="cls-35" d="M37.89,453.59C21.41,453.37,0,449.27,0,444H772.11c0,5.32-36.67,9.64-60,9.64Z"/><path class="cls-36" d="M37.89,453.51C21.41,453.29,0,449.18,0,443.86H772.11c0,5.33-36.67,9.65-60,9.65Z"/><path class="cls-37" d="M37.89,453.42C21.41,453.21,0,449.1,0,443.78H772.11c0,5.33-36.67,9.64-60,9.64Z"/><path class="cls-38" d="M37.89,453.34C21.41,453.12,0,449,0,443.69H772.11c0,5.33-36.67,9.65-60,9.65Z"/><path class="cls-39" d="M37.89,453.25C21.41,453,0,448.93,0,443.61H772.11c0,5.33-36.67,9.64-60,9.64Z"/><path class="cls-40" d="M37.89,453.17C21.41,453,0,448.84,0,443.52H772.11c0,5.33-36.67,9.65-60,9.65Z"/><path class="cls-41" d="M37.89,453.08C21.41,452.87,0,448.76,0,443.44H772.11c0,5.33-36.67,9.64-60,9.64Z"/><path class="cls-42" d="M37.89,453C21.41,452.78,0,448.67,0,443.35H772.11c0,5.33-36.67,9.65-60,9.65Z"/><path class="cls-43" d="M37.89,452.91C21.41,452.7,0,448.59,0,443.27H772.11c0,5.33-36.67,9.64-60,9.64Z"/><path class="cls-44" d="M37.89,452.83C21.41,452.61,0,448.5,0,443.18H772.11c0,5.33-36.67,9.65-60,9.65Z"/><path class="cls-45" d="M37.89,452.75C21.41,452.53,0,448.42,0,443.1H772.11c0,5.33-36.67,9.65-60,9.65Z"/><path class="cls-46" d="M37.89,452.66C21.41,452.44,0,448.33,0,443H772.11c0,5.33-36.67,9.65-60,9.65Z"/><path class="cls-46" d="M37.89,452.58C21.41,452.36,0,448.25,0,442.93H772.11c0,5.33-36.67,9.65-60,9.65Z"/><path class="cls-47" d="M37.89,452.49C21.41,452.28,0,448.16,0,442.84H772.11c0,5.33-36.67,9.65-60,9.65Z"/><path class="cls-48" d="M37.89,452.41C21.41,452.19,0,448.08,0,442.76H772.11c0,5.33-36.67,9.65-60,9.65Z"/><path class="cls-49" d="M37.89,452.32C21.41,452.11,0,448,0,442.67H772.11c0,5.34-36.67,9.65-60,9.65Z"/><path class="cls-50" d="M37.89,452.24C21.41,452,0,447.91,0,442.59H772.11c0,5.33-36.67,9.65-60,9.65Z"/><path class="cls-51" d="M37.89,452.15C21.41,451.94,0,447.82,0,442.5H772.11c0,5.34-36.67,9.65-60,9.65Z"/><path class="cls-52" d="M37.89,452.07C21.41,451.85,0,447.74,0,442.42H772.11c0,5.33-36.67,9.65-60,9.65Z"/><path class="cls-53" d="M37.89,452C21.41,451.77,0,447.65,0,442.33H772.11c0,5.34-36.67,9.65-60,9.65Z"/><path class="cls-54" d="M37.89,451.9C21.41,451.68,0,447.57,0,442.25H772.11c0,5.33-36.67,9.65-60,9.65Z"/><path class="cls-55" d="M37.89,451.81C21.41,451.6,0,447.48,0,442.16H772.11c0,5.34-36.67,9.65-60,9.65Z"/><path class="cls-56" d="M37.89,451.73C21.41,451.52,0,447.4,0,442.08H772.11c0,5.33-36.67,9.65-60,9.65Z"/><path class="cls-57" d="M37.89,451.64C21.41,451.43,0,447.31,0,442H772.11c0,5.34-36.67,9.65-60,9.65Z"/><path class="cls-58" d="M37.89,451.56C21.41,451.35,0,447.23,0,441.91H772.11c0,5.33-36.67,9.65-60,9.65Z"/><path class="cls-59" d="M37.89,451.48C21.41,451.26,0,447.14,0,441.82H772.11c0,5.34-36.67,9.66-60,9.66Z"/><path class="cls-60" d="M37.89,451.39C21.41,451.18,0,447.06,0,441.74H772.11c0,5.33-36.67,9.65-60,9.65Z"/><path class="cls-61" d="M37.89,451.31C21.41,451.09,0,447,0,441.66H772.11c0,5.33-36.67,9.65-60,9.65Z"/><path class="cls-62" d="M37.89,451.22C21.41,451,0,446.89,0,441.57H772.11c0,5.33-36.67,9.65-60,9.65Z"/><path class="cls-63" d="M37.89,451.14C21.41,450.92,0,446.8,0,441.49H772.11c0,5.33-36.67,9.65-60,9.65Z"/><path class="cls-64" d="M37.89,451.05C21.41,450.84,0,446.72,0,441.4H772.11c0,5.34-36.67,9.65-60,9.65Z"/><path class="cls-65" d="M37.89,451C21.41,450.76,0,446.63,0,441.32H772.11c0,5.33-36.67,9.65-60,9.65Z"/><path class="cls-66" d="M37.89,450.88C21.41,450.67,0,446.55,0,441.23H772.11c0,5.34-36.67,9.65-60,9.65Z"/><path class="cls-67" d="M37.89,450.8C21.41,450.59,0,446.46,0,441.15H772.11c0,5.33-36.67,9.65-60,9.65Z"/><path class="cls-68" d="M37.89,450.71C21.41,450.5,0,446.38,0,441.06H772.11c0,5.34-36.67,9.65-60,9.65Z"/><path class="cls-69" d="M37.89,450.63C21.41,450.42,0,446.29,0,441H772.11c0,5.33-36.67,9.65-60,9.65Z"/><path class="cls-70" d="M37.89,450.54C21.41,450.33,0,446.21,0,440.89H772.11c0,5.34-36.67,9.65-60,9.65Z"/><path class="cls-71" d="M37.89,450.46C21.41,450.25,0,446.12,0,440.81H772.11c0,5.33-36.67,9.65-60,9.65Z"/><path class="cls-71" d="M37.89,450.38C21.41,450.16,0,446,0,440.72H772.11c0,5.34-36.67,9.66-60,9.66Z"/><path class="cls-72" d="M37.89,450.29C21.41,450.08,0,446,0,440.64H772.11c0,5.33-36.67,9.65-60,9.65Z"/><path class="cls-73" d="M37.89,450.21C21.41,450,0,445.87,0,440.55H772.11c0,5.34-36.67,9.66-60,9.66Z"/><path class="cls-74" d="M37.89,450.12C21.41,449.91,0,445.79,0,440.47H772.11c0,5.33-36.67,9.65-60,9.65Z"/><path class="cls-75" d="M37.89,450C21.41,449.83,0,445.7,0,440.38H772.11c0,5.34-36.67,9.66-60,9.66Z"/><path class="cls-76" d="M37.89,450C21.41,449.74,0,445.62,0,440.3H772.11c0,5.33-36.67,9.65-60,9.65Z"/><path class="cls-77" d="M37.89,449.87C21.41,449.66,0,445.53,0,440.21H772.11c0,5.34-36.67,9.66-60,9.66Z"/><path class="cls-78" d="M37.89,449.78C21.41,449.57,0,445.45,0,440.13H772.11c0,5.34-36.67,9.65-60,9.65Z"/><path class="cls-79" d="M37.89,449.7C21.41,449.49,0,445.36,0,440H772.11c0,5.34-36.67,9.66-60,9.66Z"/><path class="cls-80" d="M37.89,449.61C21.41,449.4,0,445.28,0,440H772.11c0,5.34-36.67,9.65-60,9.65Z"/><path class="cls-81" d="M37.89,449.53C21.41,449.32,0,445.19,0,439.87H772.11c0,5.34-36.67,9.66-60,9.66Z"/><path class="cls-82" d="M37.89,449.44C21.41,449.24,0,445.11,0,439.79H772.11c0,5.34-36.67,9.65-60,9.65Z"/><path class="cls-83" d="M37.89,449.36C21.41,449.15,0,445,0,439.7H772.11c0,5.34-36.67,9.66-60,9.66Z"/><path class="cls-84" d="M0,446.24V436a1.81,1.81,0,0,1,1.81-1.77H770.29a1.8,1.8,0,0,1,1.82,1.77v10.23Z"/><path class="cls-85" d="M337.21,446.24v-12H1.83A1.81,1.81,0,0,0,0,436v10.23Z"/><path class="cls-86" d="M310.12,446.24v-12h297v12Z"/><path class="cls-59" d="M226.94,438a5.11,5.11,0,0,1-5.1,5.13H174.08a5.14,5.14,0,0,1-5.15-5.13v-3.26h58Z"/><path class="cls-60" d="M226.89,438a5.11,5.11,0,0,1-5.09,5.13H174.12A5.14,5.14,0,0,1,169,438v-3.24h57.91Z"/><path class="cls-61" d="M226.85,438a5.12,5.12,0,0,1-5.09,5.12h-47.6A5.15,5.15,0,0,1,169,438v-3.21h57.83Z"/><path class="cls-62" d="M226.8,438a5.11,5.11,0,0,1-5.09,5.12h-47.5a5.14,5.14,0,0,1-5.14-5.12v-3.18H226.8Z"/><path class="cls-63" d="M226.75,437.92a5.1,5.1,0,0,1-5.08,5.11H174.25a5.13,5.13,0,0,1-5.13-5.11v-3.16h57.63Z"/><path class="cls-64" d="M226.7,437.89a5.1,5.1,0,0,1-5.08,5.11H174.29a5.13,5.13,0,0,1-5.12-5.11v-3.13H226.7Z"/><path class="cls-65" d="M226.65,437.86a5.08,5.08,0,0,1-5.07,5.1H174.34a5.11,5.11,0,0,1-5.12-5.1v-3.1h57.43Z"/><path class="cls-66" d="M226.6,437.83a5.09,5.09,0,0,1-5.06,5.1H174.38a5.12,5.12,0,0,1-5.11-5.1v-3.08H226.6Z"/><path class="cls-67" d="M226.55,437.8a5.08,5.08,0,0,1-5.06,5.09H174.42a5.11,5.11,0,0,1-5.1-5.09v-3.05h57.23Z"/><path class="cls-68" d="M226.5,437.77a5.07,5.07,0,0,1-5.05,5.09h-47a5.1,5.1,0,0,1-5.1-5.09v-3H226.5Z"/><path class="cls-69" d="M226.45,437.74a5.06,5.06,0,0,1-5,5.08h-46.9a5.09,5.09,0,0,1-5.09-5.08v-3h57Z"/><path class="cls-70" d="M226.41,437.71a5.07,5.07,0,0,1-5,5.08H174.55a5.1,5.1,0,0,1-5.09-5.08v-3h56.95Z"/><path class="cls-71" d="M226.36,437.68a5.06,5.06,0,0,1-5,5.07H174.6a5.09,5.09,0,0,1-5.09-5.07v-2.94h56.85Z"/><path class="cls-71" d="M226.31,437.65a5.06,5.06,0,0,1-5,5.07H174.64a5.09,5.09,0,0,1-5.08-5.07v-2.92h56.75Z"/><path class="cls-72" d="M226.26,437.62a5,5,0,0,1-5,5.06H174.68a5.07,5.07,0,0,1-5.07-5.06v-2.89h56.65Z"/><path class="cls-73" d="M226.21,437.59a5,5,0,0,1-5,5.06H174.73a5.07,5.07,0,0,1-5.07-5.06v-2.86h56.55Z"/><path class="cls-74" d="M226.16,437.56a5,5,0,0,1-5,5.05H174.77a5.06,5.06,0,0,1-5.06-5.05v-2.84h56.45Z"/><path class="cls-75" d="M226.11,437.53a5,5,0,0,1-5,5.05H174.81a5.06,5.06,0,0,1-5.05-5.05v-2.81h56.35Z"/><path class="cls-76" d="M226.06,437.5a5,5,0,0,1-5,5h-46.2a5,5,0,0,1-5.05-5v-2.78h56.25Z"/><path class="cls-77" d="M226,437.47a5,5,0,0,1-5,5H174.9a5,5,0,0,1-5-5v-2.76H226Z"/><path class="cls-78" d="M226,437.44a5,5,0,0,1-5,5h-46a5,5,0,0,1-5-5v-2.73H226Z"/><path class="cls-79" d="M225.92,437.41a5,5,0,0,1-5,5H175a5,5,0,0,1-5-5v-2.7h56Z"/><path class="cls-80" d="M225.87,437.38a5,5,0,0,1-5,5H175a5,5,0,0,1-5-5V434.7h55.87Z"/><path class="cls-81" d="M225.82,437.36a5,5,0,0,1-5,5H175.07a5,5,0,0,1-5-5V434.7h55.77Z"/><path class="cls-82" d="M225.77,437.33a5,5,0,0,1-5,5H175.12a5,5,0,0,1-5-5V434.7h55.67Z"/><path class="cls-83" d="M225.72,437.3a5,5,0,0,1-5,5h-45.6a5,5,0,0,1-5-5v-2.61h55.57Z"/><path class="cls-87" d="M225.67,437.27a5,5,0,0,1-5,5H175.2a5,5,0,0,1-5-5v-2.58h55.47Z"/><path class="cls-88" d="M225.62,437.24a5,5,0,0,1-5,5H175.25a5,5,0,0,1-5-5v-2.55h55.37Z"/><path class="cls-89" d="M225.58,437.21a5,5,0,0,1-5,5H175.29a5,5,0,0,1-5-5v-2.53h55.29Z"/><path class="cls-90" d="M225.53,437.18a5,5,0,0,1-4.95,5H175.33a5,5,0,0,1-5-5v-2.5h55.19Z"/><path class="cls-91" d="M225.48,437.15a5,5,0,0,1-4.94,5H175.38a5,5,0,0,1-5-5v-2.47h55.09Z"/><path class="cls-92" d="M225.43,437.12a5,5,0,0,1-4.94,5H175.42a5,5,0,0,1-5-5v-2.45h55Z"/><path class="cls-93" d="M225.38,437.09a4.94,4.94,0,0,1-4.93,5h-45a5,5,0,0,1-5-5v-2.42h54.89Z"/><path class="cls-94" d="M225.33,437.06a4.94,4.94,0,0,1-4.92,5h-44.9a5,5,0,0,1-5-5v-2.39h54.79Z"/><path class="cls-95" d="M225.28,437a4.94,4.94,0,0,1-4.92,5H175.55a5,5,0,0,1-5-5v-2.37h54.69Z"/><path class="cls-96" d="M225.23,437a4.92,4.92,0,0,1-4.91,4.95H175.59a5,5,0,0,1-5-4.95v-2.34h54.59Z"/><path class="cls-97" d="M225.18,437a4.92,4.92,0,0,1-4.9,4.95H175.64a5,5,0,0,1-4.95-4.95v-2.31h54.49Z"/><path class="cls-98" d="M225.14,436.94a4.92,4.92,0,0,1-4.91,4.94H175.68a5,5,0,0,1-5-4.94v-2.29h54.41Z"/><path class="cls-99" d="M225.09,436.91a4.92,4.92,0,0,1-4.9,4.94H175.72a5,5,0,0,1-4.94-4.94v-2.26h54.31Z"/><path class="cls-100" d="M225,436.88a4.91,4.91,0,0,1-4.89,4.93H175.77a4.94,4.94,0,0,1-4.94-4.93v-2.23H225Z"/><path class="cls-101" d="M225,436.85a4.91,4.91,0,0,1-4.89,4.93H175.81a4.93,4.93,0,0,1-4.93-4.93v-2.21H225Z"/><path class="cls-102" d="M224.94,436.82a4.89,4.89,0,0,1-4.88,4.92H175.85a4.92,4.92,0,0,1-4.92-4.92v-2.18h54Z"/><path class="cls-103" d="M224.89,436.79a4.89,4.89,0,0,1-4.87,4.92H175.9a4.92,4.92,0,0,1-4.92-4.92v-2.15h53.91Z"/><path class="cls-104" d="M224.84,436.76a4.88,4.88,0,0,1-4.87,4.91h-44a4.91,4.91,0,0,1-4.91-4.91v-2.13h53.81Z"/><path class="cls-105" d="M224.79,436.73a4.88,4.88,0,0,1-4.86,4.91H176a4.91,4.91,0,0,1-4.9-4.91v-2.1h53.71Z"/><path class="cls-106" d="M224.74,436.7a4.87,4.87,0,0,1-4.85,4.9H176a4.9,4.9,0,0,1-4.9-4.9v-2.07h53.61Z"/><path class="cls-106" d="M224.7,436.67a4.87,4.87,0,0,1-4.86,4.9H176.07a4.9,4.9,0,0,1-4.9-4.9v-2.05H224.7Z"/><path class="cls-107" d="M224.65,436.65a4.85,4.85,0,0,1-4.85,4.88H176.11a4.89,4.89,0,0,1-4.89-4.88v-2h53.43Z"/><path class="cls-108" d="M224.6,436.62a4.85,4.85,0,0,1-4.84,4.88h-43.6a4.88,4.88,0,0,1-4.89-4.88v-2H224.6Z"/><path class="cls-109" d="M224.55,436.59a4.84,4.84,0,0,1-4.84,4.87H176.2a4.88,4.88,0,0,1-4.88-4.87v-2h53.23Z"/><path class="cls-110" d="M224.5,436.56a4.84,4.84,0,0,1-4.83,4.87H176.24a4.88,4.88,0,0,1-4.87-4.87v-1.95H224.5Z"/><path class="cls-111" d="M224.45,436.53a4.83,4.83,0,0,1-4.83,4.86H176.29a4.86,4.86,0,0,1-4.87-4.86v-1.92h53Z"/><path class="cls-112" d="M224.4,436.5a4.82,4.82,0,0,1-4.82,4.86H176.33a4.86,4.86,0,0,1-4.86-4.86v-1.9H224.4Z"/><path class="cls-113" d="M224.35,436.47a4.81,4.81,0,0,1-4.81,4.85H176.37a4.85,4.85,0,0,1-4.85-4.85V434.6h52.83Z"/><path class="cls-114" d="M224.3,436.44a4.82,4.82,0,0,1-4.81,4.85H176.42a4.85,4.85,0,0,1-4.85-4.85V434.6H224.3Z"/><path class="cls-115" d="M224.26,436.41a4.81,4.81,0,0,1-4.81,4.84h-43a4.85,4.85,0,0,1-4.85-4.84v-1.82h52.65Z"/><path class="cls-116" d="M224.21,436.38a4.81,4.81,0,0,1-4.8,4.84H176.5a4.84,4.84,0,0,1-4.84-4.84v-1.79h52.55Z"/><path class="cls-117" d="M224.16,436.35a4.8,4.8,0,0,1-4.8,4.83H176.55a4.84,4.84,0,0,1-4.84-4.83v-1.76h52.45Z"/><path class="cls-118" d="M224.11,436.32a4.79,4.79,0,0,1-4.79,4.83H176.59a4.83,4.83,0,0,1-4.83-4.83v-1.74h52.35Z"/><path class="cls-119" d="M224.06,436.29a4.79,4.79,0,0,1-4.78,4.82H176.63a4.82,4.82,0,0,1-4.82-4.82v-1.71h52.25Z"/><path class="cls-120" d="M224,436.26a4.79,4.79,0,0,1-4.78,4.82H176.68a4.82,4.82,0,0,1-4.82-4.82v-1.68H224Z"/><path class="cls-121" d="M224,436.23a4.78,4.78,0,0,1-4.77,4.82H176.72a4.81,4.81,0,0,1-4.81-4.82v-1.66H224Z"/><path class="cls-122" d="M223.91,436.2a4.77,4.77,0,0,1-4.76,4.81H176.76a4.8,4.8,0,0,1-4.8-4.81v-1.63h51.95Z"/><path class="cls-123" d="M223.87,436.17A4.78,4.78,0,0,1,219.1,441H176.81a4.81,4.81,0,0,1-4.81-4.81v-1.6h51.87Z"/><path class="cls-124" d="M223.82,436.14a4.77,4.77,0,0,1-4.76,4.8H176.85a4.8,4.8,0,0,1-4.8-4.8v-1.58h51.77Z"/><path class="cls-125" d="M223.77,436.11a4.77,4.77,0,0,1-4.75,4.8H176.89a4.8,4.8,0,0,1-4.79-4.8v-1.55h51.67Z"/><path class="cls-126" d="M223.72,436.08a4.76,4.76,0,0,1-4.75,4.79h-42a4.79,4.79,0,0,1-4.79-4.79v-1.52h51.57Z"/><path class="cls-127" d="M223.67,436.05a4.75,4.75,0,0,1-4.74,4.79H177a4.78,4.78,0,0,1-4.78-4.79v-1.5h51.47Z"/><path class="cls-128" d="M223.62,436a4.74,4.74,0,0,1-4.73,4.78H177a4.77,4.77,0,0,1-4.77-4.78v-1.47h51.37Z"/><path class="cls-129" d="M223.57,436a4.74,4.74,0,0,1-4.73,4.78H177.07A4.78,4.78,0,0,1,172.3,436v-1.44h51.27Z"/><path class="cls-130" d="M223.52,436a4.72,4.72,0,0,1-4.72,4.76H177.11a4.76,4.76,0,0,1-4.76-4.76v-1.43h51.17Z"/><path class="cls-131" d="M223.47,435.94a4.72,4.72,0,0,1-4.72,4.76h-41.6a4.76,4.76,0,0,1-4.75-4.76v-1.4h51.07Z"/><path class="cls-132" d="M223.43,435.91a4.72,4.72,0,0,1-4.72,4.75H177.2a4.76,4.76,0,0,1-4.76-4.75v-1.37h51Z"/><path class="cls-133" d="M223.38,435.88a4.71,4.71,0,0,1-4.71,4.75H177.24a4.75,4.75,0,0,1-4.75-4.75v-1.35h50.89Z"/><path class="cls-134" d="M223.33,435.85a4.71,4.71,0,0,1-4.71,4.74H177.28a4.74,4.74,0,0,1-4.74-4.74v-1.32h50.79Z"/><path class="cls-135" d="M223.28,435.82a4.71,4.71,0,0,1-4.7,4.74H177.33a4.74,4.74,0,0,1-4.74-4.74v-1.29h50.69Z"/><path class="cls-136" d="M223.23,435.79a4.69,4.69,0,0,1-4.69,4.73H177.37a4.73,4.73,0,0,1-4.73-4.73v-1.27h50.59Z"/><path class="cls-137" d="M223.18,435.76a4.69,4.69,0,0,1-4.69,4.73H177.41a4.72,4.72,0,0,1-4.72-4.73v-1.24h50.49Z"/><path class="cls-138" d="M223.13,435.73a4.68,4.68,0,0,1-4.68,4.72h-41a4.72,4.72,0,0,1-4.72-4.72v-1.21h50.39Z"/><path class="cls-139" d="M223.08,435.7a4.68,4.68,0,0,1-4.67,4.72H177.5a4.71,4.71,0,0,1-4.71-4.72v-1.19h50.29Z"/><path class="cls-140" d="M223,435.67a4.67,4.67,0,0,1-4.67,4.71H177.54a4.7,4.7,0,0,1-4.7-4.71v-1.16H223Z"/><path class="cls-141" d="M223,435.64a4.67,4.67,0,0,1-4.67,4.71H177.59a4.71,4.71,0,0,1-4.71-4.71v-1.13H223Z"/><path class="cls-142" d="M222.94,435.61a4.66,4.66,0,0,1-4.66,4.7H177.63a4.69,4.69,0,0,1-4.7-4.7V434.5h50Z"/><path class="cls-143" d="M222.89,435.58a4.66,4.66,0,0,1-4.66,4.7H177.67a4.69,4.69,0,0,1-4.69-4.7V434.5h49.91Z"/><path class="cls-144" d="M222.84,435.55a4.64,4.64,0,0,1-4.65,4.69H177.72a4.68,4.68,0,0,1-4.69-4.69V434.5h49.81Z"/><path class="cls-145" d="M222.79,435.52a4.65,4.65,0,0,1-4.64,4.69H177.76a4.68,4.68,0,0,1-4.68-4.69v-1h49.71Z"/><path class="cls-146" d="M222.74,435.49a4.64,4.64,0,0,1-4.64,4.68H177.8a4.67,4.67,0,0,1-4.67-4.68v-1h49.61Z"/><path class="cls-147" d="M222.69,435.46a4.63,4.63,0,0,1-4.63,4.68H177.85a4.67,4.67,0,0,1-4.67-4.68v-1h49.51Z"/><path class="cls-148" d="M222.64,435.43A4.62,4.62,0,0,1,218,440.1H177.89a4.65,4.65,0,0,1-4.66-4.67v-.95h49.41Z"/><path class="cls-149" d="M222.59,435.4a4.62,4.62,0,0,1-4.62,4.67h-40a4.65,4.65,0,0,1-4.65-4.67v-.92h49.31Z"/><path class="cls-150" d="M222.55,435.37a4.62,4.62,0,0,1-4.62,4.66H178a4.66,4.66,0,0,1-4.66-4.66v-.89h49.23Z"/><path class="cls-151" d="M222.5,434.47v.87a4.62,4.62,0,0,1-4.61,4.66H178a4.65,4.65,0,0,1-4.65-4.66v-.87Z"/><path class="cls-152" d="M766.22,433.13H5.13c-3,0-4.82.78-5,2.21H772C771.54,433.78,770.25,433.25,766.22,433.13Z"/><path class="cls-153" d="M44.24,455.88H712.67a297.64,297.64,0,0,0,33.93-2.27H15.89A131.62,131.62,0,0,0,44.24,455.88Z"/><path class="cls-154" d="M700.84,440.76a2.68,2.68,0,0,1-2.69,2.68h-39.8a2.68,2.68,0,1,1,0-5.36h39.8A2.69,2.69,0,0,1,700.84,440.76Z"/><path class="cls-155" d="M650.49,440.76a2.69,2.69,0,0,1-2.7,2.68H608a2.68,2.68,0,1,1,0-5.36h39.8A2.7,2.7,0,0,1,650.49,440.76Z"/><path class="cls-156" d="M727.62,442.23a2.89,2.89,0,0,1-2.89,2.89H709.84a2.9,2.9,0,0,1-2.91-2.89v-2.92a2.92,2.92,0,0,1,2.91-2.92h14.89a2.91,2.91,0,0,1,2.89,2.92Z"/><path class="cls-157" d="M752.61,442.23a2.89,2.89,0,0,1-2.88,2.89H734.84a2.86,2.86,0,0,1-2.85-2.89v-2.92a2.88,2.88,0,0,1,2.85-2.92h14.89a2.91,2.91,0,0,1,2.88,2.92Z"/><path class="cls-158" d="M655.66,440.76a2.66,2.66,0,0,0,2.69,2.68h39.8a2.68,2.68,0,1,0,0-5.36h-39.8A2.67,2.67,0,0,0,655.66,440.76Zm.72,0a2,2,0,0,1,2-2h39.8a2,2,0,0,1,0,3.91h-39.8A1.94,1.94,0,0,1,656.38,440.76Z"/><path class="cls-159" d="M605.29,440.76a2.69,2.69,0,0,0,2.7,2.68h39.8a2.68,2.68,0,1,0,0-5.36H608A2.7,2.7,0,0,0,605.29,440.76Zm.74,0a2,2,0,0,1,2-2h39.8a2,2,0,0,1,0,3.91H608A2,2,0,0,1,606,440.76Z"/><path class="cls-160" d="M706.93,439.31v2.92a2.9,2.9,0,0,0,2.91,2.89h14.89a2.89,2.89,0,0,0,2.89-2.89v-2.92a2.91,2.91,0,0,0-2.89-2.92H709.84A2.92,2.92,0,0,0,706.93,439.31Zm.73,0a2.19,2.19,0,0,1,2.18-2.18h14.89a2.19,2.19,0,0,1,2.17,2.18v2.92a2.19,2.19,0,0,1-2.17,2.16H709.84a2.19,2.19,0,0,1-2.18-2.16Z"/><path class="cls-161" d="M732,439.31v2.92a2.86,2.86,0,0,0,2.85,2.89h14.89a2.89,2.89,0,0,0,2.88-2.89v-2.92a2.91,2.91,0,0,0-2.88-2.92H734.84A2.88,2.88,0,0,0,732,439.31Zm.68,0a2.18,2.18,0,0,1,2.17-2.18h14.89a2.18,2.18,0,0,1,2.17,2.18v2.92a2.18,2.18,0,0,1-2.17,2.16H734.84a2.18,2.18,0,0,1-2.17-2.16Z"/></g></g></svg>