<svg id="Layer_1" data-name="Layer 1" xmlns="http://www.w3.org/2000/svg" viewBox="0 0 191 438"><defs><style>.cls-1{fill:#dededd;}.cls-2{fill:#c11e5c;}.cls-3{fill:#e72064;}.cls-4{fill:#fac0af;}.cls-5{fill:#cfe5f2;}.cls-6{fill:#6b5ea8;}.cls-7{fill:#212120;}.cls-8{fill:#e9886b;}.cls-9{fill:#cececd;}.cls-10{fill:#fff;}</style></defs><title>Artboard 2_icon</title><ellipse class="cls-1" cx="93.55" cy="396.89" rx="31.19" ry="52.55" transform="translate(-309.94 455.76) rotate(-85.04)"/><path class="cls-2" d="M46,18.59a6.67,6.67,0,0,0-3.87-9C37.65,8,32,7.84,29.55,15.33c-2.8,8.53-9.35,24.78-13.79,35.58a3.68,3.68,0,0,0,6,4A19.16,19.16,0,0,0,27.15,45s-2.47,6.95-5.07,12.77a3.68,3.68,0,0,0,4.68,4.94C32.05,60.58,37.9,56.38,38,48,38.18,37.69,42.93,25.5,46,18.59Z"/><path class="cls-3" d="M52.25,20c-2.31,3.54-6,5.24-8.17,3.8s-2.12-5.47.18-9,6-5.24,8.17-3.81S54.56,16.45,52.25,20Z"/><path class="cls-4" d="M95.67,142.19a13.61,13.61,0,0,1-4.22,1.61c-3.53.49-7.33-1.64-10.84-3.7a3,3,0,0,1-.89-.7,2.53,2.53,0,0,1-.2-2.25c1.27-4.31,3.31-4.2,6.28-6.68,1.33-1.12,2.52-2.44,3.84-3.58a39.87,39.87,0,0,1,6.8-4.43h0c2.86-1.6,13.3-7.07,15.43.76.92,3.38.62,5.6-1,7.81a21.47,21.47,0,0,1-5.74,5.74A83.84,83.84,0,0,1,95.67,142.19Z"/><path class="cls-4" d="M80.84,134.64c1.14-2.87,1.43-4.55,3-7A11.06,11.06,0,0,1,89,123.37c4.12-1.64,11-4,13.27-2.4,2.94,2-.06,5.47-1.9,7.57-3.65,4.19-9.81,7.14-14.79,9a1.86,1.86,0,0,1-2-.34c-.22.44,1.63-.76,1.45-.29C83.91,139.76,79.73,137.46,80.84,134.64Z"/><polygon class="cls-5" points="81.88 133.22 77.02 138.31 86.45 149.38 92.01 143.72 81.88 133.22"/><path class="cls-6" d="M115.66,380.6l-22-16.78L80.8,361.63c-4.25,16.71-2.32,14.69,2.55,19l19.16,11.93c10.09,4.83,13.29,5.43,19.17,2.86h0C125.24,391.61,121.87,386.7,115.66,380.6Z"/><path class="cls-6" d="M91,396.58,69,379.79,56.15,377.6c-4.25,16.71-2.32,14.69,2.55,19L77.86,408.5C88,413.33,91.15,413.93,97,411.36h0C100.59,407.59,97.22,402.67,91,396.58Z"/><path class="cls-7" d="M95.55,83.43c2.09,28.54,5.73,56.58,12.11,84.49,3,13.33,23.57,7.78,20.52-5.57a521.18,521.18,0,0,1-11.37-78.83c-1-13.56-22.26-13.76-21.26-.09Z"/><path class="cls-4" d="M91,190.75c.82,58-2.22,114.74-11.9,171.87-2.27,13.38,18.21,19.13,20.49,5.65,10-59,13.52-117.61,12.67-177.52-.19-13.67-21.45-13.71-21.26,0Z"/><path class="cls-4" d="M63.24,207.28c-3.32,57.81-8.46,115.66-8.56,173.59,0,13.68,21.24,13.7,21.26,0,.1-57.93,5.24-115.78,8.55-173.59.79-13.67-20.47-13.62-21.25,0Z"/><path class="cls-7" d="M42.52,213.86c2.16,29.87,21.26,32.88,40.54,21.75s30-36.47,30-58.74c0,0-10.72-33-30-21.89S40,179.17,42.52,213.86Z"/><path class="cls-7" d="M108.24,90.44s12.77,20.07,11.31,32.17c-.92,7.71-6.48,16.37-7.29,18.83-6.64,20.19-3,26.3-3.69,31.88,0,0-4.43,19.2-51.81,1.05l-19.9-58.46Z"/><path class="cls-7" d="M40.36,128.73c-1.74-1.07-2.17-3.93-2.17-3.93-1.21-10.42-6.94-15.16,4.4-33,1.83-2.87,26.63-15.72,45.28-19.09a19.85,19.85,0,0,1,21.61,11.82c2.13,4.93,4.2,14.68,4.2,14.68.89,19.14-7.59-6-8.94,4.58.05-.26.11-.52.15-.77,0,0-2.31,17.85-4.06,31.68-1.09,8.62-1.86,14.86-1.93,15.73v.11L66.56,176l-17-30.72h0Z"/><path class="cls-4" d="M86.7,72.44S102.87,89.13,88.85,101,51,86.35,51,86.35C63.49,78.5,75.54,73.17,86.7,72.44Z"/><path class="cls-7" d="M113.07,176.87l11.46,78.74a4.57,4.57,0,0,1-1,3c-4.4,5.85-26.65,21.15-75.26,12.55-5.6-1-6.52-1.26-6.51-4.94l2.83-62.68,28.62-.28Z"/><path class="cls-4" d="M79.39,82.06,87.1,52.3,68.45,58.21l-6.27,24.3C60.84,86.47,73.81,97.26,79.39,82.06Z"/><rect class="cls-4" x="60.75" y="11.97" width="38.28" height="61.98" rx="12.72" transform="translate(168.84 60.7) rotate(163.01)"/><path class="cls-8" d="M82.61,73.93a25.54,25.54,0,0,1-11.5-1.33s5.26,5.61,11,6.19Z"/><path class="cls-2" d="M74.59,21.75s-4.85,23.6-11.54,30.74l2.2,4.28a16,16,0,0,1,.36,13.81l-.82,1.82S20.87,48.1,48.69,17.57C67.52-3.09,97.84,7.6,97.82,29.65Z"/><path class="cls-4" d="M63,64.31c3.16,1.2,5.74-.47,5.75-3.73a9.35,9.35,0,0,0-5.7-8.09c-3.16-1.2-5.73.47-5.75,3.73A9.35,9.35,0,0,0,63,64.31Z"/><path class="cls-4" d="M139.84,185.57l-7.15,4.56c-3.49,2.22-7.61,2.06-9.17-.38l-1.08-1.7c-1.56-2.43,0-6.25,3.52-8.47l7.15-4.56c3.49-2.23,7.61-2.06,9.17.37l1.08,1.71C144.92,179.53,143.33,183.34,139.84,185.57Z"/><path class="cls-9" d="M79.9,178v-1.74l2.24.87.48-1.11,56-32.32a3,3,0,0,1,2.64.1l24.11,13.92v-.39l4.45,1.79V161h0a.83.83,0,0,1-.42.48l-58.26,33.64a3,3,0,0,1-2.65-.11L80.54,178.88a1.09,1.09,0,0,1-.64-.86Z"/><path class="cls-1" d="M111.14,193.27l58.26-33.64c.68-.39.59-1.07-.19-1.52L141.29,142a2.94,2.94,0,0,0-2.64-.11L80.39,175.52c-.68.39-.59,1.07.19,1.52l27.92,16.12A2.94,2.94,0,0,0,111.14,193.27Z"/><path class="cls-9" d="M107.16,171.6l14.1-8.14c.16-.09.14-.26-.05-.37l-6.75-3.9a.69.69,0,0,0-.64,0l-14.1,8.14c-.17.09-.15.26,0,.37l6.76,3.9A.69.69,0,0,0,107.16,171.6Z"/><path class="cls-10" d="M112.62,155.41a6.3,6.3,0,0,1,2.69-4l57.84-32.88a1.46,1.46,0,0,1,1.28-.2h0a.86.86,0,0,1,.3.23l1.92,2-1.74-.15-5.5,35.55a6.32,6.32,0,0,1-2.68,4.05L112,191.06l-1.77,2-.22.49c-1.1.24-3.75-1.64-3.75-1.64Z"/><path class="cls-1" d="M110.94,195l57.85-32.87a6.31,6.31,0,0,0,2.68-4.06L177,122.12c.24-1.53-.58-2.2-1.82-1.49L117.36,153.5a6.3,6.3,0,0,0-2.68,4.06l-5.56,35.94C108.88,195,109.7,195.7,110.94,195Z"/><path class="cls-10" d="M141.68,160.2c-.29,1.91,1.44,2.34,3.87,1s4.64-4.05,4.94-6-1.44-2.33-3.87-.95S142,158.29,141.68,160.2Z"/><path class="cls-4" d="M35.38,99.86c-5.94,13.72-13.72,27.84-15.3,42.93-1.16,11-2.17,29,5.86,37.73,7.65,8.31,20.4,6.87,30.34,4.78,6.15-1.28,12.13-3.23,18.12-5.09,2.63-.82,5.27-1.6,7.92-2.36,1.11-.32,4-.43,2.66-.75,10,2.53,14.19-12.85,4.24-15.37-7.35-1.87-15.77,2.12-22.67,4.24s-19.88,7.85-26.91,4.69c-5.86-2.64-4.41-20.11-3.79-26.14,1.31-12.76,8.28-25,13.29-36.61,4-9.32-9.69-17.45-13.76-8Z"/><path class="cls-7" d="M32,98.11c-11.66,23-12.92,47.91-12.93,72.6,0,11.12,21.25,11.62,21.26.46,0-23.3,1.06-46.27,12.06-68,5.2-10.27-15.24-15.21-20.39-5Z"/><rect class="cls-4" x="87.26" y="155.87" width="16.7" height="27.08" rx="5.98" transform="translate(284.04 121.06) rotate(105.05)"/></svg>