<?xml version="1.0" encoding="utf-8"?>
<!-- Generator: Adobe Illustrator 23.0.1, SVG Export Plug-In . SVG Version: 6.00 Build 0)  -->
<svg version="1.1" id="Layer_1" xmlns="http://www.w3.org/2000/svg" xmlns:xlink="http://www.w3.org/1999/xlink" x="0px" y="0px"
	 viewBox="0 0 620 204" style="enable-background:new 0 0 620 204;" xml:space="preserve">
<style type="text/css">
	.st0{fill:#FFFFFF;}
</style>
<title>muchadooArtboard 4</title>
<g id="Layer_4">
	<path class="st0" d="M92.9,156c-1.4-4-1.9-8.3-1.4-12.6c0.6-5.9,1.2-12,2-17.9c0.4-3.7,1-7.3,0.6-11c0-0.9-0.7-1.6-1.6-1.6
		c-0.3,0-0.6,0.1-0.8,0.2c-7.3,4.7-14,10-15,19.5c-0.2,2.6-0.6,5.2-1.2,7.7c-0.5,2.2-1.4,4.3-2.4,6.3c-1,1.8-2.6,3-4.9,2.6
		s-3.4-2-4.1-4.1c-1-2.8-1-6.1-1-9.1l1.2-31.7c0-0.6,0.2-1.2,0-1.6c0-0.8-0.3-1.6-0.8-2.2c-0.8-0.8-1.6,0.2-2,0.8
		c-1.8,2.6-3.3,5.3-4.7,8.1c-4.1,11-8.1,21.9-8.5,33.7c0,1.7-0.2,3.4-0.6,5.1c-0.8,2.6-2.6,4.3-4.7,4.5c-2.2,0-4.1-1.4-5.1-3.9
		c-0.7-1.9-1.2-3.9-1.4-5.9l-3.7-30.5c-0.4-3.1-0.4-6.2,0-9.3c0.2-2.6,2.1-4.9,4.7-5.5c2.7-0.3,5.2,1.3,6.1,3.9
		c1.4,3.7,2.4,7.5,3.7,11.6c2.8-1.6,2.8-4.1,3.9-6.1l5.3-9.8c1.1-1.7,2.4-3.2,3.9-4.5c4.9-4.5,10.2-3.7,13.6,1.8
		c2.1,3.1,3.2,6.6,3.2,10.3c0.2,3.2,0.2,6.3,0.4,9.5c0.1,0.5,0.3,1,0.6,1.5c1,0.6,1.6,0,2.2-0.6c1.4-1.4,2.6-3,4.1-4.5
		c1.4-1.5,2.9-2.8,4.5-4.1c6.1-4.5,12-3,15.6,3.7c2.2,4.3,3.1,9.2,2.6,14c-0.6,7.9-5.1,27-2,27c8.1,0,21.3-38.2,23.4-42.4
		c0.6-1.4,1-1.6,2.2-1.2c1.8,0.6,2.2,1.6,1.4,3.4c-4.9,10.8-8.7,26.6-19.9,42.6c-1.6,2.4-3.6,4.6-5.9,6.3
		C100.8,164.3,95.2,162.7,92.9,156z"/>
	<path class="st0" d="M154.9,139.4c0-2.2-0.2-4.3-0.4-8.1c-2.8,2.6-4.3,4.1-5.7,5.3c-1.6,1.3-3.3,2.4-5.1,3.2
		c-6.3,3-11.6,1.2-14.8-5.1l-1.2-3.2c-2.2-9.8-1.5-20,2-29.4c0.9-2.7,2.7-5.1,5.1-6.7c3-1.8,6.7,0,6.5,3.7c-0.1,2-0.4,4-1,5.9
		c-1.2,6.1-2.6,12.2-3,18.5c-0.3,2-0.3,3.9,0,5.9c0.2,2.4-0.4,5.7,2.6,6.5c2.8,0.8,4.9-1.2,6.7-2.8c5.9-5.7,10.8-11.8,13.4-19.7
		c1.2-3.4,2.8-6.7,4.3-10.2c0.8-1.5,1.9-2.9,3.2-4c2.2-2,5.7-0.6,6.9,2.2c0.6,1.9,0.6,4,0,5.9l-3,12.4c-1.8,6.9-6.1,25.6-3,25.6
		c7.7,0,14.4-17.7,22.1-36.2c0.6-1.4,1-1.6,2.2-1.2c1.8,0.4,2.2,1.6,1.4,3.7c-6.5,16.2-16.4,39.4-27.2,41
		C159.9,153.4,156.1,149.5,154.9,139.4z"/>
	<path class="st0" d="M239.5,111.3L229.4,131c-6.1,11.8-14.8,21.7-21.7,21.7c-9.8,0-14.4-8.3-17.5-16l-0.6-2.6
		c-2.1-9.8-1.5-20,1.8-29.4c1-3.2,2.4-6.3,5.3-8.5c3.1-2.8,7.8-2.6,10.6,0.5c0.2,0.2,0.4,0.5,0.6,0.7c3.6,4.5,3.9,13,0.4,18.3
		c-0.2,0.2-0.5,0.2-0.8,0.2c-1.6-2.6-0.2-5.5-0.4-8.1c-0.2-2.2-0.2-4.7-1.8-6.5c-0.8-0.8-2.2-1-2.8,0c-1.3,2.5-2.1,5.3-2.2,8.1
		c-0.6,8-0.4,16,0.4,24c0.1,1.1,0.4,2.2,0.8,3.2c0,0,2.8,10.8,8.9,9.5c3.7-0.6,7.3-2.8,14.8-16.2c5.3-9.3,8.9-16.8,10.8-20.7
		c0.6-1.4,1-1.6,2.2-1.2C239.9,108.5,240.6,109.5,239.5,111.3z"/>
	<path class="st0" d="M272.8,156c-0.5-2.5-0.7-5-0.6-7.5c0.2-9.1,2.6-18.1,4.9-26.8c1-3.2,2.2-6.5,2-10c-0.1-1.1-1-1.9-2.1-1.9
		c-0.1,0-0.2,0-0.3,0c-2.5,0.7-4.7,2-6.5,3.9c-8.1,7.1-13.6,16-17.7,26c-1.4,3.4-0.8,7.3-0.8,11c0,2.2,0.6,4.5,0,6.7
		c-0.8,3.4-5.3,5.3-8.1-3c-11.6-30.1-11.6-97.5,11-120c11.4-11.4,19.5-5.1,20.3,9.5c0.1,6.6-1,13.1-3.2,19.3c-3.3,10-8,19.5-14,28.2
		c-1.5,2.1-3.3,3.9-5.3,5.5c-2.2,1.4-3.4,3.9-3,6.5c0.4,8.3,1,16.5,1.4,25.4c3.2-1.6,3.9-4.1,5.1-5.9c4.3-6.1,8.9-11.8,14.8-16.2
		c3.9-2.8,7.7-5.5,12.6-3.2c4.9,2.4,5.9,7.5,5.7,12.6c-0.1,9.4-1.3,18.7-3.7,27.8c-0.8,2.8-2.4,8.7-0.8,9.1
		c5.1,1.2,14-17.1,24.4-37.6c1.2-2.2,1.8-3.9,3-6.3c0.6-1.4,1-1.6,2.2-1.2c1.8,0.6,2.2,1.6,1.4,3.4s-1.6,3.7-2.2,5.3
		c-5.5,12.6-19.3,37.4-26.4,43.9C281.4,165.2,274.7,163.1,272.8,156z M252.1,91.2c5.9-7.1,10-15,13.6-23.6
		c2.3-6.1,3.8-12.4,4.5-18.9c0.4-3.4-0.1-6.8-1.4-10c-1.2-3.2-4.3-3.9-6.5-1.4c-1,1-1.9,2.1-2.6,3.2c-2.5,4.2-4.4,8.7-5.6,13.5
		c-2.4,8.8-3.9,17.7-4.7,26.8v9.3c0.2,0.8,0.4,1.6,1.4,1.6C251.3,91.9,251.8,91.7,252.1,91.2z"/>
	<path class="st0" d="M338,146.5c-1.6-3.2-1.8-6.5-2-10c0-1.4-0.2-2.8-0.2-4.9c-3.7,1.4-4.9,3.9-6.7,5.5c-1.5,1.3-3.2,2.6-4.9,3.7
		c-5.3,2.8-11,1.2-13.6-4.3c-0.8-1.5-1.4-3.2-1.6-4.9c-1.2-13.6,1.6-26,11.4-36.3c1.9-1.8,3.9-3.3,6.1-4.7
		c7.9-4.5,15.2-1.8,18.7,6.5c0.6,1.9,1.1,3.9,1.4,5.9c0.2,2.6-0.6,4.5-1.8,3.9c-1.6-0.6-1.2-2.2-1.4-3.4c-0.5-2.8-1.8-5.5-3.9-7.5
		c-2-1.8-5-2-7.1-0.4c-1.9,1.7-3.6,3.7-4.9,5.9c-5.7,9.5-7.5,20.1-7.9,31.1c0,2.6,2.4,3.9,4.9,2.6c2.4-1.6,4.4-3.6,6.1-5.9
		c3.2-4.3,6.7-8.5,9.1-13.4c0.4-1.1,1-2,1.8-2.8c1.4-1.6,3.8-1.7,5.4-0.4c0.4,0.3,0.7,0.7,0.9,1.2c1.4,2.6,1.4,5.5,1.4,8.3
		c0.2,8.3-0.8,23.6,1.6,24.2c2.8,0.6,6.1-4.9,13.6-21.1c2.6-5.5,5.1-11.8,7.1-16c0.6-1.4,1-1.6,2.2-1.2c1.8,0.6,2.2,1.6,1.4,3.4
		l-2.2,5.3c-1.2,2.8-5.3,11-9.1,19.5c-2.2,4.9-4.9,9.9-7.1,12.8C350.4,156.6,342.5,155.6,338,146.5z"/>
	<path class="st0" d="M400.4,144.4c-1.7-5.7-2.8-11.5-3.2-17.4c0-0.8,0-2-1.2-1.8c-0.7,0.2-1.4,0.5-2,1c-1.8,2.2-3.2,4.7-5.3,6.7
		c-1.5,1.7-3.3,3.2-5.3,4.3c-3.8,2.3-8.8,1.1-11.2-2.6c-1.5-2.2-2.3-4.7-2.4-7.3c-0.4-8.9,0.4-19.3,6.1-26.2
		c4.9-5.9,12.8-6.7,21.5-2.2c0.6-4.5,1.2-7.9,1.4-11.2c0.8-11.8,3.6-23.2,7.1-34.3c1.4-4.3,3.3-8.5,5.7-12.4c0.6-0.8,1.2-1.8,2-2.8
		c4.3-6.1,8.9-8.7,13.2-6.9c5.7,2.4,6.5,7.5,6.5,12.8c0,4.6-0.4,9.1-1.4,13.6c-2.3,10.6-5.9,20.8-10.7,30.5
		c-1.8,3.9-3.9,7.7-7.1,10.6c-2.6,2.4-3.5,4.9-3.5,8.3c-0.4,10.4-1.6,20.9-0.8,31.5c0.2,2,0.2,15.2,6.3,15
		c8.1-0.2,15.4-9.1,24.8-21.7c3.5-4.7,11-18.3,13-22.5c0.6-1.4,1-1.6,2.2-1.2c1.8,0.6,2.2,1.6,1.4,3.4l-2.4,5.3
		c-6.3,14.4-26.8,42.6-39.8,43.2C407.1,160.3,403,152,400.4,144.4z M385.4,129.8c3-3.7,5.9-7.7,9.1-11.4c2.8-3.2,2.6-7.3,2.2-11.2
		c-0.4-2.3-2.2-4.1-4.5-4.7c-2.2-0.6-3.9,0.4-5.3,2c-1,1-1.8,2.2-2.4,3.4c-2.5,5.4-4,11.3-4.3,17.3v2.4c0.2,1.2,0.2,2.4,1.2,3
		C383.1,131.6,384.3,130.8,385.4,129.8L385.4,129.8z M415.8,89.8c7.4-12.8,11.7-27.1,12.6-41.8c0.1-2.5-0.1-5-0.4-7.5
		c-0.3-1.1-0.9-2.1-1.6-3c-0.5-0.7-1.5-0.9-2.2-0.4c-1.1,0.9-2.1,1.9-2.8,3c-2.6,4.5-3.9,9.3-4.9,14.4c-2.6,11.6-3.9,23.3-5.3,35.1
		c0,1.4-0.4,2.8,0.6,4.1C414.4,93.7,414.8,91.4,415.8,89.8L415.8,89.8z"/>
	<path class="st0" d="M467,143.6c-1.8-3.9-3.2-7.9-2.8-12.4c0.2-2.8,0.2-5.7,0.6-8.5c0.3-1.7-0.5-3.4-2-4.3
		c-2.3-1.7-4.4-3.5-6.5-5.5c-8.7-10-6.5-24.2,4.9-30.7c20.1-11.4,42.6,0.2,47.3,21.7c1,3.4,1.4,8.5,2,12.6
		c7.1-1.4,11.6-4.7,12.8-7.7c1.6-4.3,2.6-1.6,3.2-1.6c1,0.4,1.8,1.6,0,4.9c-2.4,4.3-8.7,7.1-14.8,8.7c-1.6,0.6-2.2,1.6-2.8,3.9
		c-1.6,5.6-3.7,10.9-6.5,16c-3.2,5.5-8.3,9.7-14.4,11.6C479.1,155,471.2,151.8,467,143.6z M505,115c1.8-16.5-12.8-38.6-37.2-29.2
		c-5.1,1.8-8.7,5.5-9.3,11.2c-0.6,6.1,2.2,11,7.1,14.4c0.9,0.8,2.2,0.7,3-0.2c2.2-2.8,4.1-5.7,6.9-7.7c4.5-3.4,7.3-2.8,10.6,1.8
		c1,1.4,1.2,3.2,0.6,4.9c-1,2-2.6,3.7-2.8,7.1c7.3,1.8,12,1.6,18.7,0.8C504.1,117.8,504.9,117.8,505,115L505,115z M493.2,143.8
		c3.9-3.2,6.1-7.3,7.9-12c1.2-3,1.8-5.5,2.2-6.5c1.4-3.9-1.2-2.2-11-2.2c-2,0-7.9,0.4-9.1,0.4c-3.2,0-4.1,1.2-4.9,4.5
		c-1.1,4.7-1.3,9.5-0.6,14.2c0.1,2.4,1.9,4.3,4.3,4.5C486,147.5,490.1,146.5,493.2,143.8L493.2,143.8z"/>
	<path class="st0" d="M536.4,143.6c-1.8-3.9-3.2-7.9-2.8-12.4c0.2-2.8,0.2-5.7,0.6-8.5c0.3-1.7-0.5-3.4-2-4.3
		c-2.3-1.7-4.4-3.5-6.5-5.5c-8.7-10-6.5-24.2,4.9-30.7c20.1-11.4,42.6,0.2,47.3,21.7c1,3.4,1.4,8.5,2,12.6
		c7.1-1.4,11.6-4.7,12.8-7.7c1.6-4.3,2.6-1.6,3.2-1.6c1,0.4,1.8,1.6,0,4.9c-2.4,4.3-8.7,7.1-14.8,8.7c-1.6,0.6-2.2,1.6-2.8,3.9
		c-1.6,5.6-3.7,10.9-6.5,16c-3.2,5.5-8.3,9.7-14.4,11.6C548.6,155,540.7,151.8,536.4,143.6z M574.4,115
		c1.8-16.5-12.8-38.6-37.2-29.2c-5.1,1.8-8.7,5.5-9.3,11.2c-0.6,6.1,2.2,11,7.1,14.4c0.9,0.8,2.2,0.7,3-0.2c2.2-2.8,4.1-5.7,6.9-7.7
		c4.5-3.4,7.3-2.8,10.6,1.8c1,1.4,1.2,3.2,0.6,4.9c-1,2-2.6,3.7-2.8,7.1c7.3,1.8,12,1.6,18.7,0.8C573.6,117.8,574.4,117.8,574.4,115
		L574.4,115z M562.6,143.8c3.9-3.2,6.1-7.3,7.9-12c1.2-3,1.8-5.5,2.2-6.5c1.4-3.9-1.2-2.2-11-2.2c-2,0-7.9,0.4-9.1,0.4
		c-3.2,0-4.1,1.2-4.9,4.5c-1.1,4.7-1.3,9.5-0.6,14.2c0.1,2.4,1.9,4.3,4.3,4.5C555.4,147.5,559.5,146.5,562.6,143.8L562.6,143.8z"/>
</g>
</svg>
