<svg id="Layer_1" data-name="Layer 1" xmlns="http://www.w3.org/2000/svg" viewBox="0 0 104.79 262.77"><defs><style>.cls-1{fill:#f8bba9;}.cls-2{fill:#2b337c;}.cls-3{fill:#6b5ea7;}.cls-4{fill:#212120;}.cls-5{fill:#c01e5c;}.cls-6{fill:#f2f5f6;}.cls-7{fill:#e62064;}</style></defs><title>work_girl3</title><polygon class="cls-1" points="1.42 95.17 33.83 133.11 38.87 125.03 14.81 88.78 1.42 95.17"/><path class="cls-2" d="M26.93,237.38l7.2-56.55-3.25-50.27,19.36,15.68-3.67,39.89L37.44,230.4c-1.3,6.4-4,7-10.51,7Z"/><path class="cls-3" d="M64,259c-6.11,4.56-8.1,4.83-11.07,1.68-5-5.26,3.55-10.22,9.66-14.78s9.89-5.21,12.48-1.75S70.11,254.42,64,259Z"/><path class="cls-2" d="M52.25,253.24l4.31-58.88-2.62-44.5,20.4-1.37-4.11,56.18-8.38,47.92c-1,5.74-2.65,3.81-7.35,3.23a2.58,2.58,0,0,1-2.25-2.58Z"/><path class="cls-4" d="M30.28,122.92,26.5,52.68a20.41,20.41,0,0,1,1-7.56l.77-2.32a4.78,4.78,0,0,1,7.21-2.45l34.88,21,5.3,89.52a7.92,7.92,0,0,1-12.3,7.07C50,149,31.06,134.35,30.28,122.92Z"/><path class="cls-4" d="M20.14,36.66h.26a8.44,8.44,0,0,1,8.44,8.44v48a8.44,8.44,0,0,1-8.44,8.44h-.26A8.44,8.44,0,0,1,11.7,93.1v-48a8.43,8.43,0,0,1,8.43-8.43Z" transform="translate(36.35 -1.09) rotate(29.25)"/><path class="cls-1" d="M46.69,49.79,52,31.19,63,39.57l-5.1,19.57C57.43,61.91,45.5,56.14,46.69,49.79Z"/><polygon class="cls-1" points="78.91 122.14 90.87 68.36 100.62 70.52 92.05 118.71 78.91 122.14"/><rect class="cls-4" x="68.48" y="60.4" width="17.13" height="64.87" rx="8.44" transform="translate(-23.82 26.65) rotate(-17.04)"/><path class="cls-1" d="M51.25,3.73S42.87,0,43.68,18c.56,12.51,8.2,23.23,17.62,27.94,5.86,2.94,13-1.09,13-7.32V13.36c0-7.52-7.3-11.88-15.31-12.22Z"/><path class="cls-5" d="M48.12,39.12S35.81,35.66,37.3,17.41C38.89-2,59.13-1.39,65.72,1.54c3.48,1.54,6.47,4.26,9.83,8.23,3.06,3.61-.18,5.28-3.82,8.82a23,23,0,0,0-5,8.24c-1.17,3.16-3.43,4.47-4.63,7.53-1.13,2.9-1,7.1-3.93,7A30.49,30.49,0,0,1,48.12,39.12Z"/><path class="cls-1" d="M68.29,31.93c0,3.13-1.82,5.66-4.06,5.66a2.84,2.84,0,0,1-.72-.09c-1.9-.47-3.34-2.79-3.34-5.57,0-3.13,1.82-5.67,4.06-5.67S68.29,28.8,68.29,31.93Z"/><path class="cls-3" d="M93.27,63.23l-9.94-4.86a1.58,1.58,0,0,1-.87-1.87l7.93-24.83a1.63,1.63,0,0,1,2.29-.87l9.93,4.86a1.58,1.58,0,0,1,.87,1.87L95.55,62.36A1.62,1.62,0,0,1,93.27,63.23Z"/><polygon class="cls-6" points="93.89 61.94 83.2 56.57 91.11 31.79 101.8 37.16 93.89 61.94"/><rect class="cls-1" x="84.75" y="37.42" width="4.53" height="4.21" rx="1.9" transform="translate(19.79 -28.41) rotate(20.87)"/><rect class="cls-1" x="83.38" y="40.91" width="4.53" height="4.21" rx="1.9" transform="translate(20.94 -27.69) rotate(20.87)"/><rect class="cls-1" x="82.6" y="43.97" width="4.53" height="4.21" rx="1.9" transform="translate(21.98 -27.21) rotate(20.86)"/><rect class="cls-1" x="81.68" y="47.29" width="4.53" height="4.21" rx="1.9" transform="translate(23.1 -26.66) rotate(20.87)"/><path class="cls-1" d="M86.89,60.17l4,8.19,9.75,2.16,4.17-13.36-3.38-16.4h0c-3,1.31-2.7,4-2.52,7.29l.31,2.26L95.55,61.57l-1.49,2.2Z"/><rect class="cls-7" x="39.76" y="14.82" width="12.54" height="7.19" rx="3.34" transform="translate(85 49.05) rotate(-163.63)"/><path class="cls-5" d="M48,19.08s6.24,16.63-2,33.47,6.11,40.24-1.23,50.62c0,0-1.74-6.76-7.29-17.15S25.82,56.46,31.4,45.52,41.83,17.59,41.83,17.59C42.37,16,46.11,16.13,48,19.08Z"/><path class="cls-2" d="M55.65,178.92c1.5,8.8,11.06,8.37,15.94,7.1l4-37L54,138.94Z"/><path class="cls-2" d="M33.56,172.05c5.39,6.94,5.89,6.87,13.62,7.44l4.25-41.61-20.3-9.54C26.24,144.17,34.63,160.84,33.56,172.05Z"/><path class="cls-3" d="M24,235.05c.08-.77.15-1.49.23-2.14s.17-1.2.26-1.72c.78-4.34,2.2-5.41,5.66-5.5,7.24-.18,5.23,9.47,4.54,17.07s-2.73,10.84-7,10.45S23.33,242.65,24,235.05Z"/><polygon class="cls-2" points="62.26 142.81 38.58 131.84 38.98 156.24 61 163.35 62.26 142.81"/></svg>