<svg id="Layer_1" data-name="Layer 1" xmlns="http://www.w3.org/2000/svg" viewBox="0 0 154.5 211.79"><defs><style>.cls-1{fill:#c4c0df;}.cls-2{fill:#6b5ea7;}.cls-3{fill:#fff;}.cls-4{fill:#f7a88d;}.cls-5{fill:#c01e5c;}.cls-6{fill:#212120;}</style></defs><title>Artboard 8</title><circle class="cls-1" cx="27.59" cy="27.59" r="23.42" transform="translate(-0.87 54.28) rotate(-88.16)"/><rect class="cls-1" x="36.92" y="48.75" width="3.65" height="25.57" rx="1.75" transform="translate(-21.17 20.32) rotate(-23.28)"/><path class="cls-2" d="M52.59,93.74h0a4.86,4.86,0,0,1-6.38-2.54L36.42,68.43A4.88,4.88,0,0,1,39,62.05h0a4.87,4.87,0,0,1,6.38,2.55l9.78,22.76A4.86,4.86,0,0,1,52.59,93.74Z"/><path class="cls-2" d="M14.06,51.64A27.59,27.59,0,1,1,51.64,41.12,27.63,27.63,0,0,1,14.06,51.64ZM38.32,8.53a21.87,21.87,0,1,0,8.33,29.79A21.9,21.9,0,0,0,38.32,8.53Z"/><path class="cls-3" d="M41.89,20.6A4.73,4.73,0,1,1,38.3,15,4.74,4.74,0,0,1,41.89,20.6Z"/><polygon class="cls-4" points="95.12 182.72 134.95 188.71 132.93 197.18 88.44 198.3 95.12 182.72"/><path class="cls-2" d="M135.86,200.93l-1.76-1.09a8.26,8.26,0,0,1-3.13-10h0a4.68,4.68,0,0,1,2.34-2.72,2.33,2.33,0,0,1,2.17.06l18.2,11.15c1.78,1.1-.38,7.67-7.14,5.89C146.54,204.23,138.17,202.34,135.86,200.93Z"/><polygon class="cls-4" points="96.02 187.96 135.6 195.45 133.26 203.84 88.76 203.28 96.02 187.96"/><path class="cls-2" d="M136.05,207.7l-1.72-1.15a8.28,8.28,0,0,1-2.75-10.11h0a4.73,4.73,0,0,1,2.44-2.63,2.38,2.38,0,0,1,2.17.14L154,205.79c1.75,1.16-.67,7.65-7.35,5.61C146.6,211.4,138.31,209.2,136.05,207.7Z"/><rect class="cls-4" x="38.18" y="73.18" width="10.15" height="17.24" rx="5.02" transform="translate(-27.35 22) rotate(-21.87)"/><path class="cls-4" d="M74,115.31,66.5,118a5.16,5.16,0,0,1-6.45-2.76L48.9,88.76l-10.75-6.4,11.24,39.41a11.92,11.92,0,0,0,16.68,7.46l17.82-8.66Z"/><path class="cls-4" d="M106.07,74.84l-2.2,1.06-.62-4.11a7.81,7.81,0,0,0-8.88-6.57l-2.58.38a7.81,7.81,0,0,0-6.57,8.88l1.45,9.67a7.8,7.8,0,0,0,8.88,6.57h0c2.09-.34,3.15.46,4.58,3.32a22.1,22.1,0,0,1,1.89,7.89,53.22,53.22,0,0,1,11.18-2.4C110.58,91.16,107,83.57,106.07,74.84Z"/><path class="cls-5" d="M88,73.13c-7.87-6.11,1.29-15.47,12.09-14.5,6.47.58,12.35,1.51,15.1,8.4.84,2.09.75.58,1.17,2.79,1.16,6,0,7-2.83,13.73-4.1,10-14.33,7.3-16.52,4.78C95.35,86.42,90.66,75.2,88,73.13Z"/><path class="cls-4" d="M97,78.67c.4,2.68-.93,5.1-3,5.41s-4-1.63-4.41-4.31.93-5.11,3-5.41S96.54,76,97,78.67Z"/><polygon class="cls-6" points="94.1 100.48 67.91 115.71 73.71 127.97 103.02 117.34 94.1 100.48"/><path class="cls-4" d="M101.37,99.77a23.13,23.13,0,0,0,9.8,3.21c6.07.65,7-1.4,7-1.4l-8.21-2.86Z"/><path class="cls-6" d="M96.06,155s-40.25,18.38-35.65,36S103,205.09,103,205.09l24.47-17.21a2.47,2.47,0,0,0,0-4.08l-4.31-2.91s15.54-17.29-.94-36.11S96.06,155,96.06,155Z"/><path class="cls-6" d="M110.76,100.55c-4.91-.4-8.75-.72-13.66-1-9.41-.45-13.38,18.75-13.38,18.75s8.38,25.52,7,39.41c5.16,1,29.37,4.11,33-11.19,2-9.87,5.59-24.67,6.17-35.44C130.44,99.41,115.63,101.2,110.76,100.55Z"/><path class="cls-5" d="M123.55,89.15a35.55,35.55,0,0,0-2-9.14,37.55,37.55,0,0,0-8.23-16.33c-.63-.73-2.05,0-1.68,1,1,2.35,1.87,4.72,2.71,7.12-3.26-1-7.19.83-7.17,5,0,.87.07,1.71.16,2.53a5.78,5.78,0,0,0-4.58,1.53c-.65-4.41-1.63-8.7-4.57-12.25C93.64,63.17,85.9,71,90.38,76.4c2.34,2.83,2.07,8.84,2.64,12.29a41.78,41.78,0,0,0,3.16,11.09c3.95,8.35,18.83,19.28,25.66,7.31C124.91,101.72,124,94.84,123.55,89.15Z"/></svg>