<svg id="Layer_1" data-name="Layer 1" xmlns="http://www.w3.org/2000/svg" viewBox="0 0 137.12 204.08"><defs><style>.cls-1{fill:#6b5ea7;}.cls-2{fill:#c01e5c;}.cls-3{fill:#f7a88d;}.cls-4{fill:#212120;}.cls-5{fill:#fff;}</style></defs><title>work_girl2</title><path class="cls-1" d="M18.44,153.72l3-5.84-3.83-3.17a3.13,3.13,0,0,0-2.42-.74,1.88,1.88,0,0,0-1.33.94L6.4,159.49c-.73,1.43,2.94,4.67,6.53.74C12.93,160.23,17.49,155.57,18.44,153.72Z"/><path class="cls-2" d="M96.66,11.65s-1.5-6.19-18-10.55-27.09,6-41.24,1.64-21.53-3.36-19,9.46S42.19,32.59,45.83,34.06,97.71,42.91,96.66,11.65Z"/><polygon class="cls-3" points="40.8 52.08 7.08 84.35 12.04 87.22 48.61 60.4 40.8 52.08"/><polygon class="cls-3" points="83.11 100.82 91.9 196.68 86.1 194.89 62.51 101.51 83.11 100.82"/><path class="cls-3" d="M64.66,104.34l-1,29.25A14.21,14.21,0,0,1,52.36,147l-33,4.07L17,144.85l34.87-10.51-5.35-26c.11-5.46,4.67-8.74,9.7-7Z"/><path class="cls-4" d="M48.72,133.58l41.07,12.53c3.43-12.58-.9-33.72-8.21-58.13l-32-5.5c-3.23,7.12-4,16-3.83,20.93C45.26,106.47,45.66,133.07,48.72,133.58Z"/><path class="cls-4" d="M50.15,42.8A16.17,16.17,0,0,1,53,37.25a10.49,10.49,0,0,1,7.24-3.31,28,28,0,0,1,7.83.93c3.46.73,11.56,2.63,15,3.37h0l10.18,2.91A27.85,27.85,0,0,1,100.57,44a10.42,10.42,0,0,1,4.84,6.32,16.11,16.11,0,0,1-.12,6.22,75.74,75.74,0,0,1-2.45,10.39L92.39,62.16C95.5,74.56,82.47,80.72,82.26,94c-3.76-.5-28.17-6.47-32.66-8.14l-1-3.41c-.38-13.64,4.67-32.82,6.66-31.85l-6.58-2.49C48.1,49.63,49,46.17,50.15,42.8Z"/><path class="cls-3" d="M105.67,64.53l4.64,11c.43,1.83,2.27.59,3.89-.36l16.53-11.32,6.39,3.38L116.65,84a9.84,9.84,0,0,1-15.41-4.09L93.76,60.4Z"/><path class="cls-3" d="M0,82.24H0a3.94,3.94,0,0,0,3.37,4.44l6.26.87a4,4,0,0,0,4.44-3.37h0a4,4,0,0,0-3.37-4.45l-6.26-.86A3.94,3.94,0,0,0,0,82.24Z"/><path class="cls-2" d="M87,26.89h0a7.17,7.17,0,0,0,9.42-3.69L98,19.43A7.18,7.18,0,0,0,94.32,10h0a7.17,7.17,0,0,0-9.41,3.69l-1.65,3.78A7.17,7.17,0,0,0,87,26.89Z"/><path class="cls-3" d="M75.49,20.51c.68.21,3.46.33,4.14.54V17.43a6.79,6.79,0,0,1,6.8-6.8H88.7a6.8,6.8,0,0,1,6.8,6.8v8.5a6.8,6.8,0,0,1-6.8,6.81h0A3.33,3.33,0,0,0,85.33,36a3.79,3.79,0,0,0,2.43,3.55C85.56,43,82.44,53.1,79.55,52.67c-3.07-.45-5.83-11.67-4.88-16.31A64.21,64.21,0,0,0,75.49,20.51Z"/><path class="cls-2" d="M75.56,30.57S67.84,20,72,10.56s21.36-8.81,22.2,0-11.26,8.56-11.26,8.56-5.65-1.07-6.75,4.22Z"/><ellipse class="cls-3" cx="77.26" cy="21.73" rx="3.21" ry="3.54"/><polygon class="cls-4" points="52.96 37.25 34.74 57.33 42.66 66.91 60.8 53.05 52.5 39.22 52.96 37.25"/><path class="cls-4" d="M105.58,51.32l5.54,22.56-4.35,12c-6.8-1.24-11.58-15-16.45-28.15Z"/><path class="cls-5" d="M32.86,60l7.64,8.42a1.67,1.67,0,0,0,2.36.12h0A1.68,1.68,0,0,0,43,66.17l-7.64-8.42A1.67,1.67,0,0,0,33,57.63h0A1.68,1.68,0,0,0,32.86,60Z"/><path class="cls-1" d="M91,194.18l-5.68-1.76-2.24,3.91a2.81,2.81,0,0,0-.29,2.28,1.68,1.68,0,0,0,1,1L98,204.05c1.4.43,3.73-3.35-.34-6C97.7,198.1,92.82,194.74,91,194.18Z"/></svg>