<svg id="Layer_1" data-name="Layer 1" xmlns="http://www.w3.org/2000/svg" viewBox="0 0 170 206.01"><defs><style>.cls-1{fill:#212120;}.cls-2{fill:#ee6390;}.cls-3{fill:#fff;}.cls-4{fill:#fae1e8;}.cls-5{fill:#ee8e7f;}.cls-6{fill:#c8675b;}.cls-7{fill:#f0f0f0;}.cls-8{fill:#c01e5c;}.cls-9{fill:#f8bba9;}.cls-10{fill:#6b5ea7;}</style></defs><title>writing_girl</title><path class="cls-1" d="M88.63,85.46h0a6.28,6.28,0,0,0,2.57-7.78L73,35.68a4.86,4.86,0,0,0-7-2.39h0a6.27,6.27,0,0,0-2.56,7.77l18.15,42A4.86,4.86,0,0,0,88.63,85.46Z"/><path class="cls-2" d="M6.09,53.87l.24.15h0L30.05,69.65c6.61,4.36,15.89,3,20.72-3s3.37-14.45-3.25-18.81L23.8,32.2h0L23.57,32c-6.62-4.36-15.9-3-20.72,3S-.53,49.51,6.09,53.87Z"/><path class="cls-3" d="M16.91,44.05l6,4.07a16,16,0,0,1,20.91-3.31l.23.16h0l-6-4.08h0l-.23-.16A16,16,0,0,0,16.91,44.05Z"/><path class="cls-4" d="M50.77,66.63c4.82-6,3.37-14.45-3.25-18.81L23.8,32.2h0L23.57,32c-6.62-4.36-15.9-3-20.72,3Z"/><polygon class="cls-5" points="36.01 39.91 150.81 115.53 134.15 123.89 15.68 45.85 36.01 39.91"/><path class="cls-3" d="M134.15,123.89l34.22,20.35-17.56-28.71C140.69,112.67,135.19,115.52,134.15,123.89Z"/><path class="cls-6" d="M134.15,123.89c-5.2,4.73-5.8,8.29,1.12,15.63l-113.13-75c-7.18-8.19-6.64-13-2.79-16.3Z"/><path class="cls-7" d="M16.91,44.05A12.85,12.85,0,0,0,20,63.14l.24.15h0l4.55,3a12.81,12.81,0,0,1-1.82-18.17,16,16,0,0,1,20.91-3.31l.23.16h0l-6-4.08h0l-.23-.16A16,16,0,0,0,16.91,44.05Z"/><path class="cls-7" d="M135.27,139.52l32.85,4.16-34-19.79C128.19,127.66,127.92,135.38,135.27,139.52Z"/><path class="cls-1" d="M170,144.2l-15.94-1.55s-2.05-.62-.32-3.77-.9-2.9,1.46-6.18,3.65-3.33,3.65-3.33Z"/><path class="cls-8" d="M47.05,25.84c-1.12-3.56-2.43-9.59-.27-12.64,1.81-2.57,6.49-2.38,9.27-3.84A10,10,0,0,1,59.94,8a3.9,3.9,0,0,1,3.6,1.61c.72,1.18.51,2.67.28,4Q62.44,21.87,61,30.09a10.52,10.52,0,0,1-.91,3.22h0C57,39.19,48.14,29.31,47.05,25.84Z"/><path class="cls-9" d="M84.53,109.68l-5.79-7.12-.18-.23a3.35,3.35,0,0,1,.88-5.08,4.42,4.42,0,0,1,2.81-.85L87.33,98l3.79.7s.5,1.15-2.37,1.55c-.89.12-1.89-.14-2.51,0a7.35,7.35,0,0,0,.42,1.28l5.51,5.91c.46.45.81.92.37,1.38l-.09.08c-.44.46-1,.15-1.41-.3L89.25,107l2,2.58c.41.49.7,1,.21,1.41l-.09.07c-.49.41-1,0-1.38-.44l-1.59-1.76.25.37c.38.51.65,1,.14,1.42l-.09.07c-.52.38-1,0-1.36-.52l-2.71-3.34,1.25,1.86c.39.51.66,1,.14,1.42l-.09.07C85.37,110.58,84.91,110.19,84.53,109.68Z"/><path class="cls-10" d="M53.05,181.49c.86,4.3.28,11.47.28,11.47l1.88.77.68-6.5c.19-.66,1.16.1,1.65.8,2.91,4.18,1.53,7.55,4.38,9.47,0,0,7.28,3.67,13.94,2.45,0,0,2.43-.46,1.08-2.35-2.66-3.71-12.42-15.42-14.34-17.85l-.52-.16L58.57,174c-1.32-.37-3.8,1.57-4.74,3.36A4.65,4.65,0,0,0,53.05,181.49Z"/><path class="cls-9" d="M59.48,173.56l3.41,5.2s6.48,10,7.88,12.26c1.63,2.65-7.7,1.57-14.33-8.85C51.57,173.93,59.48,173.56,59.48,173.56Z"/><path class="cls-9" d="M63.14,181.32,73,142.41l-.23-40.74-16.07-2,5.53,40.59s-9,5-4,38.53Z"/><path class="cls-10" d="M43.41,187.05c.86,4.36.28,11.63.28,11.63l1.89.77.67-6.58c.2-.68,1.17.09,1.66.81,2.9,4.23,1.52,7.65,4.37,9.59,0,0,7.28,3.73,13.94,2.49,0,0,2.44-.47,1.08-2.38-2.65-3.76-12.42-15.64-14.33-18.1l-.53-.17-3.51-5.63c-1.32-.38-3.79,1.59-4.73,3.41A4.77,4.77,0,0,0,43.41,187.05Z"/><path class="cls-9" d="M49.84,179l3.42,5.27s6.48,10.12,7.88,12.44c1.62,2.69-7.71,1.59-14.34-9C41.93,179.38,49.84,179,49.84,179Z"/><path class="cls-9" d="M51.3,188.42l2.35-38.86,3-39-16.74-.84,2.34,37.1s-4.86,7.07,3.82,39.2Z"/><path class="cls-1" d="M38.07,107.45c1.06,14.72,10.48,16.21,20,10.72s17.21-18.83,17.21-29.8S67.55,73,58.05,78.44,36.84,90.36,38.07,107.45Z"/><path class="cls-1" d="M36.72,63.88A3.08,3.08,0,0,1,35.66,62c-.6-5.12-3.41-7.45,2.16-16.21,1.24-2,31.87-16.9,32.58-12l0,2s-1.36,10.69-2,15.88c0-.12.05-.25.07-.37s-1.14,8.77-2,15.56c-.53,4.23-.91,7.3-.94,7.73,0,0,0,0,0,0L49.59,87.12,41.23,72h0Z"/><path class="cls-9" d="M59.4,40.73,63,26,54.71,29l-3,12C51.12,43,56.81,48.27,59.4,40.73Z"/><path class="cls-1" d="M66.27,40.82s11.65,7.2,8.25,19.6c-3.16,11.5-.19,22.63-.25,23,0,0-9.87,14.77-32.21,10.12L35.91,62.66Z"/><rect class="cls-9" x="53.01" y="3.59" width="20.09" height="32.53" rx="7.14" transform="translate(122.22 49.37) rotate(-170.97)"/><path class="cls-1" d="M75.26,88.37l-1.18,34.14S65.3,141,36.38,130.13l1.69-22.68,14.34-1.17Z"/><path class="cls-8" d="M74.18,11.07s-2.29,5.35-11.35,4.3-7.07,5.16-10.38,7.26S41.62,9.52,52.23,3,74.31,1.1,74.18,11.07Z"/><path class="cls-9" d="M48.85,20c-.48,2.07.78,6.21,2.85,6.7s4.16-2.87,4.65-4.94A3.85,3.85,0,0,0,48.85,20Z"/><path class="cls-8" d="M55.52,11.54l1.39,41.71a2.75,2.75,0,0,1-5.06,1.57L43.76,42.14l2-26Z"/><path class="cls-8" d="M72.53,9.54c1.55,17.52-.2,29-3.73,37.3a1.77,1.77,0,0,0,3.4.85,34.92,34.92,0,0,0,1.91-6.38c1.38-7.46,4-15.77,2.79-26.38-1-8.54-6.29-12.08-6.29-12.08Z"/><path class="cls-1" d="M37.34,52.57s-7.85,41.7,40.09,50.58l4.94-7S62,93,46.18,53.25Z"/></svg>